HIERARCHY
ROOT Hips
{
	OFFSET 0.00000 0.00000 0.00000
	CHANNELS 6 Xposition Yposition Zposition Yrotation Zrotation Xrotation 
	JOINT Lumbar
	{
		OFFSET 0 0 0
		CHANNELS 3 Zrotation Xrotation Yrotation
		JOINT Neck
		{
			OFFSET 0.00 0.2701 0.00
			CHANNELS 3 Zrotation Xrotation Yrotation
			End Site
			{
				OFFSET 0.00 0.1379 0.00
			}
		}
		JOINT RightShoulder
		{
			OFFSET 0.0119 0.2289 0.1181
			CHANNELS 3 Zrotation Xrotation Yrotation
			JOINT RightElbow
			{
				OFFSET 0.00 -0.1475 0.00
				CHANNELS 2 Zrotation Yrotation
				JOINT RightWrist
				{
					OFFSET 0.00 -0.1605 0.00
					CHANNELS 2 Zrotation Xrotation
					End Site
					{
						OFFSET 0.0040 -0.1068 0.0006
					}
				}
			}
		}
		JOINT LeftShoulder
		{
			OFFSET 0.0119 0.2289 -0.1181
			CHANNELS 3 Zrotation Xrotation Yrotation
			JOINT LeftElbow
			{
				OFFSET 0.00 -0.1475 0.00
				CHANNELS 2 Zrotation Yrotation
				JOINT LeftWrist
				{
					OFFSET 0.00 -0.1605 0.00
					CHANNELS 2 Zrotation Xrotation
					End Site
					{
						OFFSET 0.0040 -0.1068 -0.0006
					}
				}
			}
		}
	}
	JOINT RightHip
	{
		OFFSET 0.0316 -0.0424 0.0458
		CHANNELS 3 Zrotation Xrotation Yrotation
		JOINT RightKnee
		{
			OFFSET 0.00 -0.2438 0.00
			CHANNELS 1 Zrotation
			JOINT RightAnkle
			{
				OFFSET 0.00 -0.2449 0.00
				CHANNELS 3 Zrotation Xrotation Yrotation
				End Site
				{
					OFFSET 0.1237 -0.0542 0.0051
				}
			}
		}
	}
	JOINT LeftHip
	{
		OFFSET 0.0316 -0.0424 -0.0458
		CHANNELS 3 Zrotation Xrotation Yrotation
		JOINT LeftKnee
		{
			OFFSET 0.00 -0.2438 0.00
			CHANNELS 1 Zrotation
			JOINT LeftAnkle
			{
				OFFSET 0.00 -0.2449 0.00
				CHANNELS 3 Zrotation Xrotation Yrotation
				End Site
				{
					OFFSET 0.1237 -0.0542 -0.0051
				}
			}
		}
	}
}
MOTION
Frames: 14
Frame Time: 0.02
-0.09679 0.58116 0.02321 183.89207 0 -8.0838 -4.57911 -7.72417 1.36127 -13.7587 3.84498 2.86902 82.38657 -71.81033 -1.63086 35.67014 100.80034 5.97381 5.51119 16.53474 22.02976 9.46923 23.91075 -89.64454 -16.96862 5.32319 -0.67715 2.46013 -3.99094 -16.03291 -3.39251 -1.81016 2.37506 6.28606 8.33865 -7.63084 -21.97622 9.31276 2.53247 0.58451
-0.09756 0.58111 0.02499 183.48218 0 -8.51191 -4.59332 -7.92847 1.38554 -13.95117 3.9167 2.91462 82.41324 -72.04004 -1.72362 35.5651 101.01314 6.01793 5.54569 15.94416 22.25127 10.15089 23.52257 -89.04192 -16.52638 5.14539 -0.35558 2.53753 -4.11233 -16.4754 -3.7367 -1.65561 3.21091 6.51806 8.59713 -7.3878 -22.74223 9.73983 2.62995 0.68885
-0.09827 0.58095 0.02678 183.0722 0 -8.89728 -4.60789 -8.1097 1.38869 -14.13619 3.96837 2.92149 82.48668 -72.15769 -1.58684 35.38722 101.18251 6.16262 5.47904 15.35445 22.46649 10.71548 22.97981 -88.24096 -15.84073 4.9279 -0.08649 2.59315 -4.17467 -16.80816 -4.05209 -1.53271 3.94084 6.77653 8.82924 -7.07643 -23.53394 10.17315 2.68835 0.70711
-0.09901 0.58084 0.02857 182.66557 0 -9.29516 -4.62001 -8.29998 1.40267 -14.32935 4.0271 2.94766 82.53914 -72.32419 -1.56093 35.24974 101.37062 6.25921 5.45983 14.78148 22.67874 11.31923 22.5004 -87.51899 -15.2644 4.72728 0.20064 2.65614 -4.25162 -17.18328 -4.37367 -1.39805 4.69943 7.0176 9.06539 -6.79992 -24.30256 10.5985 2.76712 0.76817
-0.09975 0.58074 0.03033 182.24177 0 -9.72441 -4.64259 -8.49547 1.41215 -14.50243 4.09485 2.96787 82.56202 -72.50034 -1.51911 35.09136 101.56035 6.36489 5.43471 14.13296 22.9162 11.97973 22.04345 -86.82966 -14.68613 4.52927 0.51495 2.73119 -4.3824 -17.59244 -4.7259 -1.25041 5.54788 7.28191 9.33788 -6.50606 -25.12112 11.04688 2.83696 0.81518
-0.10047 0.58058 0.03215 181.85511 0 -10.07737 -4.64309 -8.67433 1.42559 -14.71524 4.13944 2.99104 82.67071 -72.62932 -1.44861 34.95423 101.73812 6.47572 5.39818 13.64321 23.09812 12.49662 21.50648 -86.03341 -14.05812 4.3173 0.75882 2.77542 -4.38716 -17.90289 -5.00754 -1.13808 6.18149 7.50363 9.5275 -6.23253 -25.84036 11.44783 2.91509 0.87016
-0.10118 0.58028 0.03414 181.56905 0 -10.2296 -4.58339 -8.8207 1.45682 -15.04347 4.11819 3.02909 82.97647 -72.65693 -1.39064 34.90899 101.8844 6.57823 5.34987 13.59212 23.14429 12.627 20.77566 -84.95788 -13.33791 4.07689 0.82515 2.73965 -4.04623 -17.97803 -5.09271 -1.11523 6.24202 7.60416 9.49255 -6.03309 -26.28793 11.72146 3.02863 0.97159
-0.10187 0.57993 0.03619 181.32131 0 -10.30626 -4.50126 -8.94989 1.49234 -15.41108 4.07535 3.07168 83.37473 -72.6406 -1.30487 34.88412 102.02196 6.68201 5.29454 13.70107 23.13205 12.61995 19.97287 -83.78929 -12.57975 3.82432 0.82129 2.67343 -3.58224 -17.95552 -5.10902 -1.12717 6.08972 7.66033 9.37503 -5.8566 -26.63278 11.94599 3.15108 1.0832
-0.10256 0.57961 0.03821 181.05751 0 -10.41767 -4.42861 -9.08213 1.52477 -15.75842 4.0468 3.1139 83.75457 -72.64327 -1.20595 34.83789 102.16992 6.7843 5.24544 13.73699 23.13592 12.68882 19.21031 -82.68629 -11.84908 3.57707 0.84653 2.62108 -3.18223 -17.97061 -5.16227 -1.12357 6.03767 7.73487 9.2964 -5.66876 -27.01886 12.18958 3.26725 1.18773
-0.10328 0.57926 0.04025 180.78725 0 -10.52618 -4.35868 -9.23373 1.56144 -16.11631 3.99902 3.14801 84.04093 -72.64593 -1.20383 34.83804 102.28976 6.89484 5.17941 13.77444 23.18296 12.69897 18.40872 -81.4778 -11.06593 3.32822 0.88184 2.56791 -2.74657 -18.01029 -5.19107 -1.11974 5.96791 7.81789 9.2114 -5.48168 -27.42929 12.44742 3.39143 1.29962
-0.10395 0.57897 0.04226 180.54041 0 -10.62298 -4.27817 -9.34109 1.59041 -16.46067 3.98599 3.20013 84.53708 -72.63988 -1.00171 34.75026 102.46593 6.98607 5.14902 13.84635 23.12711 12.7975 17.67557 -80.46954 -10.38706 3.08169 0.88015 2.50945 -2.35623 -17.97728 -5.25438 -1.12445 5.88493 7.87235 9.12009 -5.30025 -27.76376 12.66349 3.50166 1.39976
-0.10454 0.57889 0.0442 180.34173 0 -10.70875 -4.17021 -9.33177 1.59831 -16.76649 4.07814 3.30504 85.64625 -72.61883 -0.20868 34.3894 102.80542 7.03281 5.21272 13.97772 22.79441 13.19844 17.13101 -80.03895 -10.00031 2.83329 0.79388 2.44412 -2.12546 -17.76552 -5.4333 -1.14251 5.82525 7.85879 9.03419 -5.12141 -27.9177 12.77892 3.56998 1.46444
-0.10509 0.57888 0.0461 180.16669 0 -10.78494 -4.05309 -9.27842 1.59818 -17.05573 4.20541 3.42732 86.95319 -72.59133 0.77564 33.94419 103.20044 7.05791 5.31391 14.13773 22.3616 13.68896 16.66189 -79.81384 -9.72207 2.58992 0.67302 2.37458 -1.94406 -17.48501 -5.64871 -1.16813 5.75849 7.8179 8.94445 -4.94906 -27.99779 12.85344 3.6242 1.51728
-0.10566 0.57884 0.04802 179.98549 0 -10.86394 -3.94255 -9.24444 1.60101 -17.34708 4.31404 3.53914 88.13183 -72.56855 1.64076 33.55485 103.56742 7.08629 5.40269 14.28218 21.97915 14.12295 16.1709 -79.49429 -9.39872 2.35192 0.56791 2.30687 -1.73751 -17.23767 -5.84545 -1.19128 5.69063 7.78941 8.85487 -4.77914 -28.10893 12.94492 3.68603 1.57654
